<svg viewBox="0 0 200 200" width="100%" height="100%" xmlns="http://www.w3.org/2000/svg" role="img" style="width:inherit;height:inherit;line-height:inherit;color:inherit"><path d="M185 33.182v30.909H15V33.182h30.909V10h23.182v23.182h61.818V10h23.182v23.182H185zM15 71.818h170v92.727c0 8.535-6.919 15.455-15.455 15.455H30.455C21.919 180 15 173.081 15 164.545V71.818zm115.909 46.364h30.909v-30.91h-30.909v30.91zm-46.364 0h30.909v-30.91H84.545v30.91zm0 46.363h30.909v-30.909H84.545v30.909zm-46.363-46.363h30.909v-30.91H38.182v30.91zm0 46.363h30.909v-30.909H38.182v30.909z"></path></svg>