<svg viewBox="0 0 200 200" width="1.25em" height="1.25em" xmlns="http://www.w3.org/2000/svg" class="dJtn-menu-item-icon" role="img" aria-hidden="true"><path d="M22.613 84.516C15.647 84.516 10 78.883 10 71.935h12.613c6.966 0 12.613 5.632 12.613 12.581H22.613zm154.774-12.581c-6.966 0-12.613 5.632-12.613 12.581h12.613c6.966 0 12.613-5.633 12.613-12.581h-12.613zm-14.97 13.387c17.991 23.752 15.201 5.722 15.201 74.678h-25.226v-15.484H46.638V160H22.382c0-61.366-3.522-57.158 15.26-75.027C52.259 31.161 56.599 40 127.818 40c25.287 0 29.864 27.733 34.599 45.322zM51.402 84.63h97.104c-10.46-38.739-5.871-32.049-76.037-32.049c-14.277 0-17.559 19.369-21.067 32.049zm9.619 26.983c0-6.948-5.647-12.581-12.613-12.581H35.796c0 6.948 5.647 12.581 12.613 12.581h12.612zm60.705 11.613H78.169a4.374 4.374 0 0 0-4.132 5.791c1.318 4.014 1.759 2.919 47.794 2.919c5.718-.001 5.891-8.71-.105-8.71zm42.479-24.194h-12.574c-6.944 0-12.613 5.655-12.613 12.581h12.574c6.944 0 12.613-5.654 12.613-12.581z"></path></svg>