<svg viewBox="0 0 200 200" width="1.25em" height="1.25em" xmlns="http://www.w3.org/2000/svg" class="dJtn-menu-item-icon" role="img" aria-hidden="true"><path d="M169.88 138.9h0a79.85 79.85 0 00-3.83-84c-.1-.15-.22-.29-.33-.44a79.91 79.91 0 00-131.3-.2c-.15.22-.33.43-.48.65c-1.37 2-2.63 4.07-3.82 6.2h0a79.85 79.85 0 003.83 84c.1.15.22.29.33.44a79.91 79.91 0 00131.3.2c.15-.22.33-.43.48-.65c1.37-2 2.63-4.1 3.82-6.2zM100 114.55a110.59 110.59 0 00-20.32 2a93.19 93.19 0 01-.05-33a111 111 0 0020.37 2a110.17 110.17 0 0020.37-2a96.15 96.15 0 011.45 16.45a98.18 98.18 0 01-1.5 16.52a111.13 111.13 0 00-20.32-1.97zm16.78 16.12a97.25 97.25 0 01-16.78 31a97.09 97.09 0 01-16.78-31a95.82 95.82 0 0116.78-1.58a98.8 98.8 0 0116.78 1.58zM83.17 69.32a101.72 101.72 0 0116.83-31a101.79 101.79 0 0116.83 31A95.33 95.33 0 01100 70.91a98.56 98.56 0 01-16.83-1.59zm51.35 10.6a115.45 115.45 0 0023.28-10.56a65.2 65.2 0 010 61.27a113 113 0 00-23.38-10.54a113.12 113.12 0 001.94-20.09a111.07 111.07 0 00-1.84-20.08zm15-22.59A100.53 100.53 0 01131 65.78a115.69 115.69 0 00-14.12-28.95a65.42 65.42 0 0132.64 20.5zm-66.39-20.5a115.75 115.75 0 00-14.08 28.85a98.56 98.56 0 01-18.56-8.37a65.51 65.51 0 0132.64-20.48zM65.49 79.88a107.94 107.94 0 00.07 40.17a115.19 115.19 0 00-23.36 10.59a65.2 65.2 0 010-61.27a113 113 0 0023.29 10.51zm-15 62.79a100.14 100.14 0 0118.61-8.47a112.19 112.19 0 0014 29a65.4 65.4 0 01-32.62-20.53zm66.46 20.48a112.49 112.49 0 0013.94-28.85a98.23 98.23 0 0118.63 8.39a65.45 65.45 0 01-32.58 20.46z"></path></svg>