<svg viewBox="0 0 200 200" width="1.25em" height="1.25em" xmlns="http://www.w3.org/2000/svg" class="dJtn-menu-item-icon" role="img" aria-hidden="true"><path d="M163.83 30.34H36.37a16.15 16.15 0 00-16 16v95.19a16 16 0 0016.2 15.97l23.6-.2l18.62 32.36L97.61 157h66.12a16 16 0 0015.93-15.93v-94.9a15.81 15.81 0 00-15.83-15.83zM58.28 131.81l5.48-22.91l50.68-49.58l16 15.63c-59.91 58.65-43.58 47.3-72.16 56.86zm80.15-64.63c-3.58 3.49.3 5.48-18.71-13l2.68-2.59c10.66-10.39 26.6 5.24 16.03 15.59z"></path></svg>