<svg width="173" height="100%" viewBox="0 0 173 222" fill="none" xmlns="http://www.w3.org/2000/svg" className="Q57A-illustration" role="img" style="width: inherit; height: inherit; line-height: inherit; color: inherit;"> <g clip-path="url(#globe-a)"> <path d="M168.71 192.7c0 15.87-26.37 28.73-61.43 28.73S43.8 208.57 43.8 192.7c0-15.87 28.42-28.76 63.48-28.76 35.06 0 61.43 12.89 61.43 28.76Z" fill="#0D200F"></path> <path d="M123.6 185.28v6.87c0 5.77-3.81 11.53-11.39 15.94-15.25 8.86-40.06 8.86-55.41 0-7.73-4.46-11.59-10.32-11.58-16.17v-6.86c0 5.84 3.85 11.7 11.58 16.16 15.35 8.87 40.15 8.87 55.41 0 7.58-4.4 11.38-10.17 11.39-15.94Z" fill="#753002"></path> <path d="M123.6 185.28v7.21-7.21Z" fill="#753002" stroke="#0D200F" stroke-width=".16" stroke-linecap="round" stroke-linejoin="round"></path> <path d="M123.6 185.62v6.87a14.308 14.308 0 0 1-.26 2.25v-6.87c.146-.742.233-1.495.26-2.25" fill="#753002"></path> <path d="M123.6 185.62v6.87a14.308 14.308 0 0 1-.26 2.25v-6.87c.146-.742.233-1.495.26-2.25" stroke="#0D200F" stroke-width=".16" stroke-linecap="round" stroke-linejoin="round"></path> <path d="M123.34 187.87v6.87c-.153.751-.364 1.49-.63 2.21v-6.87c.266-.72.477-1.459.63-2.21" fill="#753002"></path> <path d="M123.34 187.87v6.87c-.153.751-.364 1.49-.63 2.21v-6.87c.266-.72.477-1.459.63-2.21" stroke="#0D200F" stroke-width=".16" stroke-linecap="round" stroke-linejoin="round"></path> <path d="M122.709 190.08v6.87c-.288.767-.639 1.51-1.05 2.22v-6.86c.405-.717.756-1.462 1.05-2.23" fill="#753002"></path> <path d="M122.709 190.08v6.87c-.288.767-.639 1.51-1.05 2.22v-6.86c.405-.717.756-1.462 1.05-2.23" stroke="#0D200F" stroke-width=".16" stroke-linecap="round" stroke-linejoin="round"></path> <path d="M121.66 192.31v6.86a18.96 18.96 0 0 1-1.57 2.35v-6.87a18.559 18.559 0 0 0 1.58-2.34" fill="#753002"></path> <path d="M121.66 192.31v6.86a18.96 18.96 0 0 1-1.57 2.35v-6.87a18.559 18.559 0 0 0 1.58-2.34" stroke="#0D200F" stroke-width=".16" stroke-linecap="round" stroke-linejoin="round"></path> <path d="M120.08 194.65v6.87a23.618 23.618 0 0 1-2.44 2.61v-6.87a21.824 21.824 0 0 0 2.43-2.61" fill="#753002"></path> <path d="M120.08 194.65v6.87a23.618 23.618 0 0 1-2.44 2.61v-6.87a21.824 21.824 0 0 0 2.43-2.61" stroke="#0D200F" stroke-width=".16" stroke-linecap="round" stroke-linejoin="round"></path> <path d="M117.649 197.26v6.87a30.38 30.38 0 0 1-5 3.68v-6.87a30.38 30.38 0 0 0 5-3.68Z" fill="#753002" stroke="#0D200F" stroke-width=".16" stroke-linecap="round" stroke-linejoin="round"></path> <path d="M112.689 200.94v6.87l-.48.28a44.25 44.25 0 0 1-8.59 3.78V205a44.25 44.25 0 0 0 8.59-3.78l.48-.28Z" fill="#753002" stroke="#0D200F" stroke-width=".16" stroke-linecap="round" stroke-linejoin="round"></path> <path d="M103.619 205v6.87a56.665 56.665 0 0 1-7.42 1.84v-6.87a56.665 56.665 0 0 0 7.42-1.84Z" fill="#753002" stroke="#0D200F" stroke-width=".16" stroke-linecap="round" stroke-linejoin="round"></path> <path d="M96.2 206.84v6.87c-1.64.3-3.31.53-5 .7v-6.87c1.69-.17 3.36-.4 5-.7Z" fill="#753002" stroke="#0D200F" stroke-width=".16" stroke-linecap="round" stroke-linejoin="round"></path> <path d="M91.2 207.54v6.87c-1.44.14-2.89.24-4.35.29v-6.87c1.46 0 2.91-.15 4.34-.29" fill="#753002"></path> <path d="M91.2 207.54v6.87c-1.44.14-2.89.24-4.35.29v-6.87c1.46 0 2.91-.15 4.34-.29" stroke="#0D200F" stroke-width=".16" stroke-linecap="round" stroke-linejoin="round"></path> <path d="M86.86 207.83v6.87c-1.33 0-2.67.05-4 0v-6.87h4ZM82.85 207.85v6.87c-1.29 0-2.58-.1-3.86-.21v-6.87c1.28.11 2.57.18 3.86.21Z" fill="#753002" stroke="#0D200F" stroke-width=".16" stroke-linecap="round" stroke-linejoin="round"></path> <path d="M78.99 207.64v6.87c-1.28-.1-2.55-.25-3.81-.43v-6.86c1.26.18 2.53.32 3.81.42" fill="#753002"></path> <path d="M78.99 207.64v6.87c-1.28-.1-2.55-.25-3.81-.43v-6.86c1.26.18 2.53.32 3.81.42" stroke="#0D200F" stroke-width=".16" stroke-linecap="round" stroke-linejoin="round"></path> <path d="M75.18 207.22v6.86c-1.31-.18-2.6-.41-3.88-.67v-6.87c1.28.27 2.57.49 3.88.68" fill="#753002"></path> <path d="M75.18 207.22v6.86c-1.31-.18-2.6-.41-3.88-.67v-6.87c1.28.27 2.57.49 3.88.68" stroke="#0D200F" stroke-width=".16" stroke-linecap="round" stroke-linejoin="round"></path> <path d="M71.3 206.54v6.87c-1.39-.29-2.75-.62-4.09-1v-6.87c1.34.38 2.7.71 4.09 1ZM67.21 205.54v6.87c-1.63-.47-3.22-1-4.76-1.61v-6.87c1.54.61 3.13 1.14 4.76 1.61Z" fill="#753002" stroke="#0D200F" stroke-width=".16" stroke-linecap="round" stroke-linejoin="round"></path> <path d="M62.5 203.94v6.87a43.422 43.422 0 0 1-5.65-2.71c-7.73-4.46-11.59-10.32-11.58-16.17v-6.86c0 5.84 3.85 11.7 11.58 16.16a42.182 42.182 0 0 0 5.65 2.71Z" fill="#753002" stroke="#0D200F" stroke-width=".16" stroke-linecap="round" stroke-linejoin="round"></path> <path d="M123.6 185.28v6.87c0 5.77-3.81 11.53-11.39 15.94-15.25 8.86-40.06 8.86-55.41 0-7.73-4.46-11.59-10.32-11.58-16.17v-6.86c0 5.84 3.85 11.7 11.58 16.16 15.35 8.87 40.15 8.87 55.41 0 7.58-4.4 11.38-10.17 11.39-15.94Z" stroke="#0D200F" stroke-width=".16" stroke-linecap="round" stroke-linejoin="round"></path> <path d="M84.31 208.32c21.584 0 39.08-9.899 39.08-22.11s-17.496-22.11-39.08-22.11c-21.583 0-39.08 9.899-39.08 22.11s17.497 22.11 39.08 22.11Z" fill="#ED6912" stroke="#0D200F" stroke-width=".16" stroke-miterlimit="10"></path> <path d="M58.56 176.52c17.14-7.34 41.47-5.38 54.35 4.38 5.46 4.13 8 9 7.78 13.8 4.34-6.79 2.76-14.66-5.44-20.87-12.88-9.75-37.22-11.71-54.35-4.37-9.87 4.23-15.19 10.62-15.46 17.15 2.48-3.89 6.89-7.42 13.12-10.09Z" stroke="#0D200F" stroke-width=".16" stroke-miterlimit="10"></path> <path d="M85.89 165.67c-2.403.676-4.95.634-7.33-.12-2.14-.73-4.18 16-4.18 16 1 5.34 9.79 5.58 13.74 3.23a4.06 4.06 0 0 0 2.22-3.12c.04-.04-2.23-16.64-4.45-15.99Z" fill="#C24F02" stroke="#0D200F" stroke-width=".16" stroke-miterlimit="10"></path> <path opacity=".3" d="M102.95 212.26c7.36-3 15.71-6.84 19.13-14.38 1.43-3.13 1.33-2.1 1.43-5.11.06-1.82 1.71-11.28-5.3-17.5-.79-.7-5.31-4.56-8.66-6-49.23-20.47-63.64 41.73-6.6 42.99Z" fill="#0D200F"></path> <path d="M55.34 199.04c-13-9.75-9.51-23.61 7.74-30.95a54.8 54.8 0 0 1 11.57-3.39c-4.65.664-9.2 1.91-13.54 3.71-17.25 7.34-20.72 21.2-7.74 31 10.26 7.72 27.75 10.56 43.15 7.76-14.9 2.18-31.35-.73-41.18-8.13Z" fill="#FFBD90"></path> <path d="M125.9 4.28c1.09.76 6.63 3.08 7.27 9.89.52 5.68.7 12.72.34 13.64-1.75-1.76-11.43-7.56-11.43-7.56.21-1 .82-6.7 1-7.73-.58-1.13-13.86-10.21-14.44-11.34a11.57 11.57 0 0 1 4-.1c1.73.14 12.48 2.86 13.26 3.2ZM61.06 177.38c1.31.21 14.69 4 19.88-.44 4.33-3.71 9.36-8.65 9.75-9.55-2.48 0-13.48-2.54-13.48-2.54-.56.9-4.06 5.39-4.63 6.28-1.2.41-16.35.83-17.55 1.25a10.5 10.5 0 0 0 6 5h.03Z" fill="#035746" stroke="#0D6B59" stroke-width=".16" stroke-miterlimit="10"></path> <path d="M83.26 167.44c43.818 0 79.34-35.522 79.34-79.34 0-43.818-35.522-79.34-79.34-79.34-43.818 0-79.34 35.522-79.34 79.34 0 43.818 35.522 79.34 79.34 79.34Z" fill="#67C0AF"></path> <path d="M59.67 163.73c-.09 0-.3-.13 0 0Zm44.54.8c-4.63 1.21-24.61 4.13-37.48.91-.27-.14.57-.08-2.09-1.21-.41-.18-1.29-1.27-2.07-1.65a.9.9 0 0 1 .58 0c-.2-.14-1.2-.48.23-.24.14-.25.11-.22.15-.23h.67a.764.764 0 0 0-.27-.2c-.06 0-3.18.17-3.23.23-.39.35-.41 0-.43.48-1.24-.34.19.26.62.56-.31.08-.28 0-.06.23-.27.09-2.22-1-3.16-.69.47.24-.25-.14 1.85.68-.77 0 .43.2 1.12.45 2.81 1.11-8.85-2.82-5.41-1.52 17.43 6.17 32.45 6.52 48.98 2.2ZM83.93 108.26c-1-1-2.7-.81-3.61-2 0 0-1.72-2-3.11-1.88a40.313 40.313 0 0 1-5.05-1.3c-.08-1.07-.54-1.2-.64-1.21-.92-.1-2.15-1.48-3.45-1.62-1-.11-1.4-1.11-2.88-1.72-.89-.37.75-1.41 0-2-1.2-1 .29-3.3-1.61-3.91a19.754 19.754 0 0 0-1.61-1.69c-1.61-1.17-3.86-.63-5.37-2-1.27-1.19-1-4-3.47-3.89-.48-.63-.18-1.76-1.26-2-1.75-1.42-.4-.55-.86-1.39-1.42-.26-2 .56-3 .33-.77-.19-1.12-1.13-2-1.15-1.79 0-.91-2.94-5-1.43-1.54-1.55 4-3.19-3.23-.91l-.22-.18c-.12 0-3 3.12-3 3.15-.73-.2-.34-1.21-1.93-2.19-.16.31-.27.67-.09.89 1.08 1.62 1 6.29.24 7.85a8.508 8.508 0 0 1-1.88 2c-.2.21-.23.52-.41.75-.59.48-1-.36-1.2 1.07-.1.66-.67 1-1 1.58-.33.58 0 1.1-.18 1.63-.09.3.62 1.3.63 1.3 1.31.32-2.26.68-1.13 3.2.19.44.11.49-.06.64-.27.42.67 1 1 1.63 1.66 3.08 1.07 4.8 3.27 8.47 2.28 4.68 2.28 4.68 2.84 5.16 4.31 3.68 4.31 3.68 4.66 4.42 1.23 2.58 0 5.43.89 8.06 0 3.85.19 3.83.82 9.82a23.267 23.267 0 0 1-.23 2.49c-.34.09-.48-.54 1.34 4.15 0 .13-.14 1.58.79 1.54 0-.46-.56-1 0-1.38 2.06 6.29.5 1.2 0 2.31.43.85.43.85.26 1.16.15.45-.1.3-.06.5.4.39 1.27-.14 1.17 1-.93.15.45 1.49.83 1.71 0 .75.22.24.62.52 0 .18 0 .18 1 .86.25 1.41 5.14 3.46 6.19 3.72.07-.23-.1-.17.75 0 .24-.08.24-.08 1 0-.59-.72-5.37-2.81-3.52-2.24-.45-.8-1.78-1.28-.44-1.59 0-1.67 2.28-.48-.94-2.56-.64-.49-.67-1.14.8-1.06.023-.159.078-.312.16-.45-.46-1.27.28-.68.15-1.11-.34-.18-.17 0-.3-.61a1.665 1.665 0 0 1-.81-1.3c.89.08 1.66.9 2.64.41-1-3.29.51-.58 3.71-1.5.55-.15 1.16-1.39 1-1.61-.55-.76-2.85-2.2-2-2.5 2.63 1.81 5.27 1.7 5.75-.24a1.422 1.422 0 0 0 .71-1.2c.1-.33 1.14-1.94 1.53-1-.26.38-1 1.1 2.15-2 1.09-1.09-.33-3.11 1.46-3.94 1.24-.57 2.77-.42 3.78-1.54 2.73.31 2.73.31 4.42-.87.27-2 1.91-3.19 2.69-4.89.88-1.92 0-5.53 1.27-6 .92.12 5.61-6.66 5.62-6.73a7.854 7.854 0 0 0-.59-3.53Zm-23 31.62c0-.31-.67-.45-.45-.42.22.03 1.2-.62.42.42h.03Z" fill="#B2BC29" stroke="#0D200F" stroke-width=".16" stroke-miterlimit="10"></path> <path d="M77.06 19.88c-.58-.09-.28.05-.29-.24-.5-.11 0-.3-.34-.49 0-.15.17-.16-.3-.15-.16 0-.07-.31-.45-.6.32-.61.81-.1 1-.38-.08-.18-.27-.28.09-.27.11 0 .33-.23.17-.39-.13 0-.24.13-.38.1.2-.36.89-.13-.06-.56 0-.42.58-.57-.36-.6 0-.12.16-.23-.14-.15.28-.14.29-.14.34-.21-.14-.2.11-.17.1-.31-.01-.14-.22 0-.13-.2 1.11-.45.14-.86-.58-.57.88-.76-2.24-.22-2.71.57-.11-.77 2-1 2.17-1.07.17-.07-.68-.52-3.46.62.32.74-.28.2-.64.43-.32.42 0 .1.13.66a2 2 0 0 1 .49.24c-1 .19-1.84 1.05-3 .76-.81.72-1.05.16-.2-.26 1-.2 1.36-.95-.28-.29.91-.84 1.34-.32.86-.77.6-.52 1.67-.29 2-1.28 1.17-.47 3.37-.12 2.94-.88-.84-.19-6 1.32-5.76 2-4.53 1.85-1.92.44-1.78.21 1.43 0 2.37-1.17.27-.56-.2.55-.28.3-1.34.65-1-.78-.82.08-.51-.86.94-.35-.08-.8-.85-.21-.68.19-.57.21-.49-.12-1.67-1 1-.32.78-1.26.234-.199.478-.386.73-.56-.27-.22-.83-.13.47-.45-.296 0-.591.034-.88.1.75-.47 2.39-.54.51-.4.14-.088.297-.143.46-.16a1.07 1.07 0 0 0-.71-.13c.11-.08.78-.29-.58-.12.56-.38 5.52-2 5.49-2 1.12-.54-6.56.71-14.53 3.68-.72.26-.81.3.41-.07-5 2.93-7.32 2.44-23.54 15.67 4-3.32 6.35-4.63 6.22-4.9-12 5-17.16 21-18.66 21.69a3.79 3.79 0 0 0-.43 1.4c.46.42-1 2.5-1.06 2.62-.06.12-.66 2.78-.61 2.85.6-.18-.17.19 2.7-6.4 3.34-7.69 2.48-3.64 2.61-3.51-2.29 1.5-4.34 12.52-4.36 12.57-.58 2.09-2.41 1.15.08 8.06.38.53.47 1.22.94 1.7.62.65 1.66-.16 2.24.65.79 1.09.22 2.61 1.15 3.67 2.56 2.94 2.44 1.84 2.94 2.26-.3 1.3 1 2.32.64 3.63-.18 2.11-.18 2.11.48 1.69.65.9.66 2.85 1 2.23 0 .14 2 2.23 2 2.39a.48.48 0 0 0 .82-.47c-.14-.49.94-1.72 1.5-1.28.4-1.8 0-.22-2.91-.89-2.17-3.35.17-6.7.66-7.34 1.49-2.64-3.58-3.51-3.64-3.5-.61-.52-.83.28 1.38-3.71.06.27 0 .21.25.28 1.14-1.7 1.76-2.67 1.8-2.44 1-2.83-2.34-1.6-2.38-1.58-1.28.58-1 2.47-2.51 2.9-.84-.68-1.85-.28-2.3-.56-.58-4.5-.58-4.5.31-6.3 4.53-9.15 5.43-5.74 6.56-7.55 2 .56 2.36.45 2.3 1.3 0 .15 0 .34.43.25.23.16.07.12.58 0 .09.41-.09.19.66-.49-.65-.67.82-.25 1.38-.26a1.8 1.8 0 0 0 .26.29c.42 0 .42 0 1.55 1.35 2.68-.26.4 1.54.74 2.89.3 1.2-1.26 3.94.46 3.67a4 4 0 0 0 1.42-2.59c.93-6.9 1.95-4.42 4.55-6.81.33-.58 3-1 3-1 .29-.14.28-.61.69-.62a.84.84 0 0 0 .67-.51c-.3-.54 0 0 .34-.88.76-2.52 1.35-3.46.48-.9 1.16 0 1-1.32 1.71-1.78.55.41 1.38-.49 1.76-1 .49-.72 1.75 0 1.67-.38-.77-.09-.66 0-.64-.22.76-.33 2.86.53 2.69-.71-.08-.58 1.24-1.54 1.63-1.54 1.33 0 2.26-.64 4.91-1 .28.81-1.62.32-1.84 1.56.33.85.44.35 2.05-.4.74.3 4.72-.57 4-1.35 0-.21.17-.4.16-.63-.33 0-1.12.58-1.42 1-.16.11-.09.1-.29 0-.52-.42-1.38-.21-1.74-.93a1.22 1.22 0 0 1 .51-1.49c-.2-.35-.56-.05-.81-.52.43-.26 0 .37 1.54-.22.59-.54 0-.93-.71-1-.71-.07-.74 0-3.9 1a4.29 4.29 0 0 1 2.82-1.29c1.31-.55 1.31-.55 5.25 0a9.67 9.67 0 0 0 4.84-1.4c.35-.8.69-1.55-.45-1.55.13-.24.13-.24-.19-.53.14-.071.275-.155.4-.25 0-.09-.33-.35-.45-.32-.12.03-.17 0-.41-.4-1.72-.4 0-4.43-.42-5.11-4.2 2.36-2.5 1.19-3.33.74 0-.68 1-1.49 1.07-1.52.22-.27-.08.09-.71-.53.17-1 .17-1-1.75-1.67a1 1 0 0 0-1 .61c-1.16 1.61-3.47 1.42-2.78 2.61.25.41-.88 2.38-3.53 2.52-.49.46-.7.69 0 0-.35 0-.53 0-.69.61-.11.41-3.11 3.49-2 2.22a3.28 3.28 0 0 0-.82.14 4.47 4.47 0 0 1 .25-2c.38-.3 1.18-1.2 1.57-1.55-.19-1-.95.63-1.79-3.17-.72-.22-1.16.17.45-1.45-.27-.21-.23-.1-.18-.46a73.44 73.44 0 0 1 7.09-2.59c.79.47 3.65-1 3.8-1.06.13.47.39.44.8.19.41-.25-.4.94 2.34-.92.84 0 1.3-.75 2.08-.71.05.14.07.09-.11.19.87 0 .47 0 .9-.24.18.23.23.13-.07.38.07.06.07 0 .08.09.01.09 0 .23 0 .34 0 .28-.91.12-.7.34 1.25-.15.17.36.64.3v.2c.21.15-.28.68-.41.78a8.28 8.28 0 0 0-1.7.57c-.5 1.07-1.38 0-1.67.1-1.46.31-1.55 1-.14.77.15 0 .32.15.51.13.54.57.18.38.28.67 0 .11.2.13.22.26.02.13-.25.16-.3.31 0 1 .18.3.52.48.13.06 0 .22.2.41 0 0 .91.66 1.06.61.68-.22-.39-1-.06-1.51.27-.21.57.6.63.64.62.34.09.84.92 0 .15-.16.45 0 .55-.28.1-.28-.08-.37 0-.55.19-.34 0-.43 0-.43-.43-.14-.09-.57-.08-.76 0 0-.15 0 0-.11s.5-.26.44-.27c.77-.07.31.92.46 1 .15.08.15.31.38.21s.25-.27.42-.36c.17-.09.37 0 .54-.1.36-.2.28-.26.37-.29.47.06.81-.05.53-.4Zm-26.9 14.91c.21.13.24.74.7.29 1-1 .73 1.66.06 1.48-.22-.06-.31-.41-.31-.48 0-.84-.25 0-.45.22a9.326 9.326 0 0 0-1.27 1.15c-.35.23-.81.35-.43-.25.38-.6.2-.83-.32-.55-.52.28-.54 0 .08-.31s1.31-.9 1-1.39c-.21-.3-.21-.7.1-.58s.59-.17.59-.1c.48-.11 1.22.71.33.44-.17.02-.08.08-.08.08Zm-1.53-3.69c.11 0 .2.07.31 0 .26-.11.26-.26.32-.19v.14c1.6.11.95.38.82.92-.09.36.37.29.39.36.02.07-1 2-1.07 1.32 0-.47-.16-.17-1.1-.31-.52-.08-.17-.32-.52-.72 0-.22.66-.34.52-.44-.659.15-1.327.258-2 .32-.35 0 .26-.45-.2-.42-1.86.12 2.07-.78 2.53-.98Zm-2.79 5.4c-.46 1.15-1.82 1.72-2 1.44-.18-.28.92-1.92 2.65-3.07.59-.4 0-.1-.16-.13s.93-.63 1-.66c.07-.03 1.52-.19 1.55.18 0 .16-1 .79-1.14.78-.12-.32-1.66.9-1.9 1.46Zm4.49 2.16c-3.14 1.46-4.17.12-3.43-.11.48-.05 4.33-1.09 3.43.11Zm.14-.6c0-.28-.08-.29.56-.49.12-.16.09-.15.19-.14-.24.32 0-.14 2 .29.07 1.22-1.9.37-2.72.34h-.03Zm10.57-23.7c-.705.178-1.424.295-2.15.35 2.37-.63-1.92.23 1.43-.78.16-.14.17-.14 1.22 0-.32.35-.93.01-.5.43Zm10.87 6.35c-.13.11 0-.1-.25 0s-.38 0-.21-.13c.78-.49.56.05.46.13Zm1.12-1c-.1 0-.39.12-.3 0 .72-.92.65-.3.78-.26.13.04-.16.39-.48.27v-.01Zm2.23-4.22c.11-.34-1.46.42.45-.57-.4.57.85.21.35.4-.01.01-.69.17-.8.18v-.01ZM83.14 18.69l-.12.06c.08-.11.09-.12.12-.06Zm9.28.57s0 .17-.13.08c-.13-.09-.06-.14.13-.08Zm-.43-.3c0 .23-.2 0 0-.06-.01.04 0 .04 0 .04v.02Zm.08-.15c0 .1 0 .1-.09.08-.01-.28.08-.13.09-.08Zm.05-.56c-.07-.01-.02-.08 0 0Zm-9.33-1.63c-.06 0-.09 0 0 0s.05-.06 0 0Zm10.57.11c-.16.11-.28-.17 0 0Zm-.94-1.51a.09.09 0 0 1-.08-.072.09.09 0 0 1 0-.038s.27.11.08.11Zm-.57-2.07c-.07-.05-.1-.13 0-.08s.05.07 0 .08Zm-1.47-.52c0 .07-.15 0 0 0Zm-4-.43s.04-.02 0 0Zm3.59.2c-.07 0-.06.08-.18 0s-.28.2-.29.06c-.01-.14 1-.22.47-.06Zm-1.76-.26c-.06 0 0-.1 0 0Zm.45 0s.03-.09 0-.02v.02Zm-.16-.06v-.06a.122.122 0 0 1 0 .04v.02Zm3 .66a1.458 1.458 0 0 1-.38-.09c-.13.62-.24.25-.21.3.12-.32-.12-.55-.32-.48 0 .23-.18.2-.29-.08.11-.06.3-.06.22-.19-.08-.13-1-.62-1.65-.39-.08.25 0 .14-.15 0-.17.06-.49 0-.59.08.13.28-.16-.1-.18.21.05 0 .07.1.13.12 0 .5-.28-.48-.57-.15-.29.33-.12.18-.22 0-.49.16-.44.5-.14 0 0 0-2.56.39-2.73.44-.17.05.22.14.26.19-.77.43-3.54.19-2.78.7.06.33.71.19.66.2 0 .36-.91-.05-1.31.11-.19.14.21.2 0 .31-.21.11-.28.13-.22.09 0 .4.36.11.46.2a2 2 0 0 1 1.6.6c-.22.55 0 1.44-.71 1.74-.09.39-.41.49-.46.75.41.35.73-.22.87 0 0 .09 0 .07.08.08 0 .17 0 0-.18.23.18.15.46.13.46.33-.13.71-1.1-.4-1.23.14-1 .56-.52.9.41.71.24-.17.13-.17-.19-.54 0-.16.44-.08.64.62-.76 1-.58.41-1 .46-.42.05-1.8 2-1.27 2.24.17.36-.28 1-.1 1 .18 0 .07-.24.3 1.46.09.63.64.86.68 1.55.34.23.78 0 1.13.23.35.23.35.51.65.65 1.54.74 1.86-2.05 1.9-2.12 1.24-.12 1.26-1.59 1.25-1.6-.37-.4.26-.18.35-.22.09-.04.13-.54.69-.31.13 0 .13 0 .57-.5.11 0-.82 1.85 2.58-1.11l-.16-.36c.12-.09.73.68 1.14.13.68.41 2.69-.8 2.64-1-.62-.44-2.13.11-1.19-.5 0-.24-.28-.4-.12-.49.28.14 1.18 1.07 1.24.55 0 .07.24.12.33.1 0-.64-1.88-1.48-1.79-1.72.12 0 .75.7 1.06.53-.85-1.63-2-.68.16-.77 0-.08-.58-.52.08-.51.26-.26-.95-.53-.57-.66.54.34-.11-.48-.52-.61-.08 0-.15.19-.32-.17.27.09-.19-.52.88.26-.31-.58-.39-.6-.44-.62-.2.14-.63-.3-.27-.16 0-.16-.3-.19-.45-.19 0 .42-.23-.41-.2-.48.29 0-.29-.39-.38-.64.12 0 .24-.12.24.11 0 .23.34.15.17-.1.07-.07.06 0 .06-.12-.36-.33 0 .05 0-.28.4-.41-.73-.63-.6-.28v.02Zm-11.9.38c-.21.08 0-.06.09 0s-.08-.02-.08-.02l-.01.02Zm-.32-.17c-.35 0-.09-.09 0 0Zm.53-.05c-.075.01-.149.026-.22.05.26-.09.17-.01.23-.07l-.01.02Zm1.01-.37c-.19.06.07 0 .06 0h-.06Zm1.29.1c.07-.11.28-.09.01-.03l-.01.03Zm-.89-.44s.07-.07.13 0h-.13Zm-.16.16c-.72.22-.22 0-.27 0 1.02-.31.56-.11.28-.03l-.01.03Zm.55-.79h.1-.1Zm1.24.2h-.19c.27-.06.42-.08.2-.03l-.01.03Zm-.59-.26c.1-.05.15-.05.01-.03l-.01.03Zm4.17.45c.76-.53-2.39-.57-3.26-.53-.06 0-1.38.36-.54.37-.62.23.39.26 1 .16-.47.31-1 .07-1.54.3-.54.23-.2.06.13-.17-.06-.22-.73.06-1 0 .42-.2 1.26-.33.4-.23a7.362 7.362 0 0 1 1-.41 8.92 8.92 0 0 0-2 .17c-.17 0-.67.21-.62.19.42.26.56-.08-.42.18-1.37.54.21.21-.22.44 2.46 0 .57-.38.22.12.29.07.1.12.54 0-1.74.61-.79.16-.79.09-.21-.13-.52.06-.73.17-.21.11-.56 0-.86 0-.66.18 0 .08-.24.21.4.37 1.71.17 1.11.5.14.06 1.4 0 1.21-.19-.66.1.82-.38 1.09-.33.09.14.91-.09 1.16-.22.56-.48 1.79-.1 3.44-.68.08 0-.11 0-.12-.07.22-.02.67.1 1.05-.08l-.01.01Z" fill="#B2BC29" stroke="#0D200F" stroke-width=".16" stroke-miterlimit="10"></path> <path d="M67.5 14.73c.47-.15.21-.1.59-.51-.13-.41 5.39-1.77 3.36-1.42-.3.07-.67.35-.49 0-.15-.22-1.38.53-2.11.52a7.78 7.78 0 0 0 1.42-.6c-.07-.09.1 0-.8.08.14-.09.71-.17.57-.34-.2 0-.5.1-.45 0 2.34-.6-2.21-.2-1.9.16-.17.1-1.11-.06-1.14.27.08 0 .06.06 0 .08-.06.02.24.09.34.17.1.08 0 .26-.48.28-.34-.66-1.55-.24-1.53 0 .02.24.29.14-.24.31-1.19.39-.08.65 1.4.51 0 .08-.16.08-.28.17.19.09 0 .1-.18.24 1 .66 1-.2 1.65-.13-.08.09 0 .06 0 .12s-.15.22.27.09Zm92.62 92.66c-2.85 10.23-5.42 14-7 18.08 3.98-5.94 7.02-18.26 6.98-18.08h.02Z" fill="#B2BC29" stroke="#0D200F" stroke-width=".16" stroke-miterlimit="10"></path> <path d="M113.31 35.38h-.05.05Zm-5.23-5.67c.03-.04.01-.05-.01 0h.01Zm6.58 3.97c-.21-.07.29.16-1-1.11-.33-.31-.8-.38-1.14-.65-.52-.42-.57-.95-1.82-1.12 0-.06.07-1.45-.44-1.57-2.08.11-.84-.33-1.19-.81-.16-.17-.14-.21-.12-.31.02-.1-.17-.21-.25-.12-.08.09.16.25.16.4-.82.6-.94-.77-.76 1.27-.14 0-.2-.21-.36-.23-.18.18 0 .22.51.53.17.15.05.39.17.55.12.16.34 0 .45.19.63.81.33 1.18.68.45.69 0-.16.64.95 1 0 0 .44-.21.55-.14.24.5.86.7 1 1.27.14.57-.89 0-.83.28.1.39.58.44.72.8.14.36-.61.52-.31.79 1.5.29 1.3.27 1.49.24.19-.03.25.19-.06.19-.86 0-1 1.61-.6 1.31.12-.1.06-.21.28-.32.22-.11.7.34.71-.17 0-.11 0-.2.14-.25 3.63-.37 2.82-1 2.55-1-.89-.12.65-1.66-1.49-1.47h.01ZM102.4 12.04s8.52 3.82 9 3.14a11.264 11.264 0 0 0-1.91-.55c-1.73-.57-6.9-2.91-7.09-2.59Zm-3.25 10.48c-.28-.39-.51-.23-.65-.33-.6-.39-.3 0-.42.09s-.19-.09-.26 0-.28 0-.42 0c-.14 0 0 .08-.08.09-.08.01-.17-.19-.37-.07-.2.12 0 .17-.1.24-.1.07-.34-.24-.43-.22-.09.02.12.22.06.35-.31 0-.32.35-.5-.15-.06-.14-.75-.7-.87-.25-.09 0-.19-.12-.27 0-.56.91.5.3.79.61 0 .49-.48.2-.3.41.93.25.86.71.53.73-.08.22.55.09.76.11.21.02.41.22.64.27 1.55.34.8-.14 1.65-.25.19 0 .26-.23.42-.31.16-.08.29 0 .39-.14.78-.84-.34-.97-.57-1.18ZM70.51 12.17c.05 0 1.58-.47.67-.4 2.22-1.32-8.39 1.27-2.26.4.58-.08 1.29.06 1.64 0h-.05Z" fill="#B2BC29" stroke="#0D200F" stroke-width=".16" stroke-miterlimit="10"></path> <path d="M98.76 13.5c-.07 0-.09 0 0 0Zm-.22.25.06.13c.06.13-.56-.19-.62-.24.67.07.39.18.34 0-.05-.18.18.08.18.11h.04Zm-1.78-.61c.24.48 3.53 1.47 3.76 1.49 0-.16-1.35-.68-1.84-1.09.18-.11 1.53.68 1.47.41.09-.01 1.93.3-3.36-.81h-.03Zm-18.84.9c.81-.34-1.43-.61-1.44-.64-.01-.03 0 0-.18 0 0-.11.42-.19.35-.28-.07-.09.27 0 .36 0 .09 0 .26-.17.22-.25-.04-.08-.22 0-.28-.07-.06-.07.18-.05.23-.16.05-.11 0-.13-.07-.16-.29-.07-.83.15-.85.29-.02.14.22 0 .33.08-.33.34-2.07.59-1.47.73-.07.16-.07.16 0 .18.62.2.48-.27.22.11.41.188.861.264 1.31.22-.3.22.31.36 1.3-.05h-.03Zm-4.16 23.78c.15-.36-.23-.13-.32-.15-.05-.18.15-.27.15-.43 0-.16-.4.29-.54.26-.16-.45.85-.62.7-.86-1-.24.43-.61-.24-1-1-.55-.6.25-1.3-.31-.2-.15.13-.43-.1-.55-.23-.12-.53.22-.56.08-.07-.33 2.13-1.44 1.27-1.57-1.15-.06-3.56 2.86-3.64 2.91-.71.44-1.55.69 1.59 1 .34 0 .39.4.89.18.16.08-.19.37-.42.41-.55.1-.22.58.49 0 .22-.17.37 0 .84-.36s-.15.67-.17.72c0 .21.2 0 .3.06.1.06.31 1.03 1.09-.39h-.03Zm-.92-25.8h.1-.1Zm1.45.23c.8-.17.05-.14.11-.17s1.16-.27 1.07-.34c-1.2 0-2.64.78-1-.1h-.12c.1-.08.24-.05.34-.1-.2-.16-2.2.08-2.09.25 1.05 0 .4 0-.48.21s.8.21 1 .24c-.2.3.82.09 1.2.01h-.03Zm35.57 20.16a4.198 4.198 0 0 0-.87-.71c-.14 0-.28.06-.42 0-.14-.06-.2-.12-.32-.11-.12.01-1 .33-.51.71.31.26 0 .44-.32.36-.32-.08-.53.07-.28.43.09.13 0 .32.16.44s.41.13.58.28c.17.15.06.79-.12.89-.18.1.15.73.86.78 1-.31.81-.63 1.29-.74.48-.11.45-.11.47-.15.16-.4-.33-1.14-.6-1.48-.27-.34.23-.44.11-.7h-.03ZM96.26 10.3c-.05 0-.09 0 0 0Zm-.32-.19c-.32 0-.42 0 .05.06h-1c-1.44.2 4.75.05.95-.06Zm-23.7 3.59c-.19 0-.35.13-.51.15.26-.3.56-.22 1.11-.36.16 0 .65-.34-.08-.22-.2 0-.14-.28-.9 0-.05 0-.75.46-.86.26.09-.1.25-.09.32-.21-.17-.09-1 .26-.83.35-.48.44-1.06.65-.75.63a5.29 5.29 0 0 0 2.5-.6ZM40.5 65.05c-.06-.11 0-.25-.07-.35-.07-.1-.25-.14-.35-.24-2.33-2.22.34-.5-2.4-2.45-.19-.16-.09-.47-.49-.83a4 4 0 0 0-3.65-.7c-.56.21-1 1-.57.91 1.54-.28 1.74-.85 2.37-.33.22.19-.26.39-.07.61.19.22.78.27 1.09.57.215.276.453.533.71.77.5.35.81 0 .71.71-.13 1 .71.89.85 1.07.45.61-1 .72-.5 1 .17.09.9.09 1.28.18s.56.31.88.36c2.55.35.21-1.23.21-1.28Zm26.39-44.7c.43-.28-.08-.23-.08-.34 0-.11.45-.37.28-.5-.17-.13 0-.27 0-.4s-.12 0-.11-.12a.762.762 0 0 1 .06-.16c-.08-.1-.18 0-.27 0-.09 0 .59-.14.64-.44-.05 0-.14.06-.25.07-.11.01 0-.16-.47 0-.516.243-1.017.517-1.5.82-.28.19-.84.11-.92.34 0 0 .46 0 .53.11s-.45.29-.39.4a4.849 4.849 0 0 0 1.52-.34c.35-.17.19 0 .34.14.15.14-.14.1-.12.2.02.1.16.59.72.22h.02Z" fill="#B2BC29" stroke="#0D200F" stroke-width=".16" stroke-miterlimit="10"></path> <path d="M89.16 8.67a.25.25 0 0 1 .19 0h-.19Zm-.54-.05c1.2.2 3.18.21 1.5.11-.05 0-1.42-.13-1.5-.11Zm8.88 4.41c.26.12-.33-.09 0 0Zm.16-.29a5.184 5.184 0 0 0-.84-.07c0 .05.18.07.38.16-.54 0-.77-.23-.4 0-.29.16 1.34.27 1.39.29.41.15.01-.18-.54-.38h.01Zm-21.39-.34c-.61-.31-2 .23-.92-.15.91-.55-.71.12-.89.23 0 .17.75 0-.23.26-1.18.35 2-.05 2.03-.34h.01Zm-29.3 57.31c.18-.51-.73-.8-1-1.28a1.87 1.87 0 0 0-2.16-1.1c-.65.11-.45-.74-1.44-.48-.33.22.23.4.28.6.82 2.86-2.55-.18-2 1.07.29.7.58.28 1.16.53.93.41.91-.38 1.53.94.17.27.67-.87 1.28-.39.29.22.53-.08.78-.08.8-.01 1.31.89 1.56.19h.01Zm28.85-58.45c1.14-.14-1.58-.26-2.13-.12.27.09-.06.08.29.06-.21.08-.83.19.6.07.07-.01-1.17.29 1.23-.01h.01Zm20.33-1.34c-1.49 0 3.38.63.3 0h-.3Zm-16.88 1.53a.73.73 0 0 0-.5 0c-.09.16-1.48.17-.75.31h-.05c0 .11-.25.08-.35.17-.1.09 1.58-.34 1.64-.48h.01Zm49.52 34.68c-.06-.12-.75-1.12-.91-.55-.1.36-.27.26-.33.38s.19.12.69 1.07c.11.277.237.548.38.81.17.24.51.38.5 0-.03-.48.79.64-.34-1.71h.01ZM97.12 11.5h-.1.1Zm-.53-.11c-.55-.06 1 .19.57.18 2.02.37 1.41.12-.57-.18Zm-42.78 2.62.48-.19-.48.19Zm21-.69c2.09-.61-.63-.43-.44 0a.49.49 0 0 0 .45 0h-.01Zm-2.2 4.62c-.68-.14-2 .87-.65.66.33-.09 1.19-.58.65-.66Zm6.41-5.98c.24-.27-1.11.19-1 .23a1.13 1.13 0 0 0 1-.25v.02Zm-2-.48c.44 0-.19-.15-.35-.14-.7 0-1.05.25.36.1l-.01.04Zm9.95-2.92c1 .06 1.2.08 1.25.07.05-.01-1.23-.11-1.24-.11l-.01.04Zm-43.95 11.7s1.63-1 2.26-1.35c.67-.7-2.56 1.45-2.25 1.31l-.01.04Zm54.71-8.43c-.27-.06-.67-.08-.07 0 .4.09 0 0-.21 0 .21.11 1.9.35.29-.04l-.01.04Zm-.2-.38c-1.55-.24.51.15.45.15s-.32-.17-.48-.19l.03.04Zm-19.5-.14a1.9 1.9 0 0 0-.71 0c.14 0 .12 0 0 .06s.66.06.72-.1l-.01.04Zm35.12 5.21a.87.87 0 0 0-.45-.09c-.02.24 2.03.72.46.05l-.01.04Z" fill="#B2BC29" stroke="#0D200F" stroke-width=".16" stroke-miterlimit="10"></path> <path d="M162 83.68c.22-1.51-.87-10.49-1.06-10.1a15.446 15.446 0 0 1-.39 3.63c-.5-.26 1.12 1.74-6.34-13.19-6.88-11.48-6.84-9-4.13-6.76 0-.38 0-.42-.55-1.77 7.34 11 7.34 11 10.07 18.83.37-.14.31.23.48-2.8 0-4.26-2.09-10.37-3.67-14.32-2.95-6.27-.87-2.05-.33.48 0 0-1.08-2.16-1.21-2.33.174.516.374 1.024.6 1.52-1.24-2.27-3.64-5.65-3.36-5.93.73.3 2.13 3 2.51 3-.53-4.17-17.32-35.13-53.67-43.47-13-2.81 6.24 2 6.5 2.11-1.43-.2 2.93 1-.22.22-.78-.1 4.33 1.31 4.28 1.28-.05-.03 4.63 1.8 3.9 1.69-1.19-.81-8.27-3.16-7.8-2.57 2 .67 4 1.14 5.93 2-.67-.11-1.35.05-2-.08a21.1 21.1 0 0 0 2 .74c.44.52 1.25 1 .21.56a8.229 8.229 0 0 0 2.18 1.64c0 .55-2.42-1.37-2.1-.56.25.1 2.61 1.23 2.71 1.29-1.69.08 3.46 2 .61 1.4.38.5 1.08.4 1.54.79-.69.33-4.23-1.5-4.47-1.63.655.155 1.331.199 2 .13 0-.78-1.91-1.3-1.94-1.31-1-.15-2.08.08-3-.44-.6-.29-.22 0-.69 0s.1-.45-1.9-.56c.19.18.84.56.1.21.71 1 .56.11-.5-.1.19.19.42.54.09.4-.18.21-.11 0 .22.3-.19.08-.16 0 0 .17-.16 0-.35-.07.14.23-.19 0-.37-.1-.57-.11.173.407.462.755.83 1-.89-.22-.57-.34-.57.17.31.21.31.21.29.45.47-.34.43-.32.57-.21.13 1.15 1.37 1.56 1.73 2.55-.29.33 1 1.6.11 1.22 0 .39 0 .39.1.54-.94 1.14 1.48 3.74 2.19 3.38.1.06 0 0 .12.1.25.92 1.89 1 2 .61.11-.39 0-.63.15-.93a1.146 1.146 0 0 1-.1-.2c4.93 3.29 2.65 1.83 4.15 3.93-.38.08 0 .34.34.23 0-.19 0-.32-.57-1.11.2 0 .79.54 1 .19-.8-1.33.49-.3 0-1.15.56.15-.93-.92-1.57-1.92-.34-.53.06-1.37-1.36-1.7-2.18-.69-2.49-3.06-4-4.38 1.17-.92 2.4 1.65 2.33 1.89a10.562 10.562 0 0 0 3.59 2.48c.65.06.55-.77 1.13-1 .65.34.84.06.84.31-.07 0-.13.29.1.55-.14.11-.14.11-.72.12-.8 1.17 1.32 1.08 2 2.32-.32.22-.23 0-1.17-.35-.41.62 1.48 1.78 2.06 2.5-.55.42-.28-.11 0 .73-.77.54-.4-1.12-1.85.89l.07.19c-.91-.17-1.13-1.2-1.67.1-.26 0-.27 0-.38-.24-.42-.12-.5.14-1.12-.54.35-.16.79.2-.55-.71-.18-.48-.2-.26-.07-.53-2-1.62-1.3-1.24-1.44-.68.19.32.08.09-.27.06 0 .08 2.4 2.5 2.54 3.26a2.81 2.81 0 0 0-.58 0c-.18.3-.59.29-.78.58.13.47.63.6.23.67-.31-.37-.3-.28-.41-.12a1.376 1.376 0 0 1 .139 1.155 1.373 1.373 0 0 1-.799.845c0 .29.32.48.27.78-.05.3-.56.54-.56 1-.47.18-.85-.19-1.28-.23-.14.38.39.51.46 1.05-1.6.27-.6-.3-2.09.2-.09.31.52.85.6.85 2.46-.23 5 3.65 4.2 4.68-.8 1.03-5-.82-6.19.71.15 1.19 1.32 2.19 1.32 3.33.05.55-.21 1.09 0 1.64.11.39.63.33.77.69.18.51.05.74.34 1.32a1.52 1.52 0 0 0 1.24 0c1-.66 1.35 1.12 2.18 1.21.32 0 .21-.73 1.21-.93 2.6 0 1.73-.53 2.08-1 .12-.17.39-.06.5-.27.11-.21 0-.53 0-.79s.27-.33.31-.54c.04-.21-.52-.48-.66-.88-.53-1.61 2.31-2.48 1.19-3.86-.4-.49-.27-.66-.09-.9.61-.81 1.43.42 2.15 0s.07-1.56 1-1.69c.05 0 9.48 4.67 8.39 6.08a5.268 5.268 0 0 1-.68.48c-.55.31-.64-.18-.91 0-1 .76 1.27 1.08 1.44 1.16 1.44.72.26-.42.18-1.13-.06-.49.22 0 .36-.16.14-.16-.13-1-.12-1.13.14-1.25-.63-.38-.9-1.62 0-.25-.11-.25.56-.18.24.09.66.64.6.29-.17-.86-2-.83-2.7-1.87-2.1-.1-5.42-3.34-4.26-3.87.38.19.51.64.87.85 0-.16-.05-.32 0-.47.59.59 1.82 1.82 2.82 1.87 3.09.86 2.63 2 4.19 3.55.136.057.267.127.39.21 1.53 1.75 1.57.84 1.57 1.35 0 .51.42.52.65.84.12.16.19.35.32.5.13.15.16-.07.26 0s.21.21.34.27c.13.06 0-.14.09-.16.09-.02.18.12.25.12 0-.17-.56-.73-.66-1 .09-.08.11.12.26.07.15-.05-.37-.38-.38-.68.2-.22.93.69.1-.72-.14-.25 0 0-1.11-.66-.82-1.07-.75-.78-1-1.13-.28-.55.4.08.65-.18-.33-.32-.54-.66-.09-.75.15-.43.5-.22 1 0 .48 1.3 2.58 2.64 3 3.8.31-.06.24-.11.49.15.51-.15.81.55 1.27.22 0-.37-.22-.81-.11-.81.69.06 1.81 1.24 1.42-.43.149-.115.275-.258.37-.42.82.69 5.06 8.61 2.13 7-.69.41-.3.73-.73 1.23-5.75-2.19-6.11-.92-5.39.54 2.59 5.32-4.47-2.24-7.69-1-.92-.66-.65-4.92-1.53-3.77-1.1-.37-2.09.52-3.17.23-.26.16-.508.341-.74.54-3.13-.85-5.73 2.95-6.71 2.47a7.008 7.008 0 0 1-1.51.15c-.5-.1-1-1.34-1.52-.47-.36.63 0 1.4-.33 2-.33.6-1.44.88-1.79 1.7-.93 2.18.41 3.22-.41 4.49-.65 1-2.16.88-2.7 2-4.57 9.54-3.91 7.52-2.57 11.48.64 1 .52 4.14-.82 5.92.38 1.14.17 2.44.86 3.51 1.08 1.65 3 2.5 4.06 4.1.41.84.28 1.88 1 2.58 7.36 5 5.78 4.5 7.79 3.46a6.94 6.94 0 0 1 4.3-.57c2.51.56 7.91-5.67 9.3-.88.31 1.09.61 1 2.06.54a1.89 1.89 0 0 1 2.47 2s-.41 3-.43 3.1c-1.61 4.66 3.61 6.54 2.27 15.68-.08.59-4.61 8.1-3.9 9.86.07.17.31 4.18.31 4.29-2.46 10.62-2.18 10.19-3 10.74-.28.34-.24.8-.51 1.14.66 1.76 2.85-.9 4.25-1.19 9.41-7.76 11.49-13.8 17.06-25 1.2-3.45 5.01-23.78 4.92-30.52Zm-23-40c-.11 0 0 .14-.11.18-.42.16-.64-.9-.21-.9.89-.02.82.61.35.7l-.03.02Zm2.5-2.48c-.12-.07-.17-.08-.2 0-.25.07-.28-.25-.48-.28-.21.18-.36-.13-.55-.19-.2.26-.64 0-.61.83.03.83.2.67.08.83-2.59.57-2.85-2-3-2.32-.15-.32-.88-1.18-.76-1.3.32-.22-.46-.7-.53-1.23 0 0-.85-1.47.14-.79.71.47.51-.25.87.18.14.23.05.43.21.65.16.22.46.1.64.27s.25.41.47.53c.22.12.1-.36 0-1l.22-.09a1.003 1.003 0 0 0-.31-.41c-.13 0 0 .84-1-.35a1.064 1.064 0 0 1-.12-1c0-.15-.06-.28-.05-.43.01-.15.16-.26.15-.42.33.19.11.54.31.79 2.07 2.61 0 1.16 2.34 2.2 3.41 1.61 3.9 3.81 2.18 3.53Zm3-1.4c-.34-.79-4.85-3.79-5-5.28-1.19-1.74-1.05-1.54-.86-1.77.79.3 1.29 1.82 2.24 2.7 1.27.65 3.55 3.67 2.17 1.7.1-.06 1.24.74 1.13 1.37.63.79 3.32 3.52 3.44 4.59-.55.16-1.58-.95-3.12-3.31Zm11 67.74c-.28-.41 0-1.08-.11-1.73a2.589 2.589 0 0 1-.24-1.47c.66-8.1.27.31.33.35.2.25.23 2.85.02 2.85Zm.86 2.82c.4-2.17.24-2.13.42-2.28.35.73-2.28 11.25-.47 2.28h.05Zm1.82-15c-.36 2.24-.52 2.3-.38 2.42.14.12-.13.51-.14.51-1.19.12-.5-.51-.57-1.56 0-.57.06-1.77.57-2 .86-.79.31.7.71 0 .13-.16-.24.57-.24.63h.05Z" fill="#B2BC29" stroke="#0D200F" stroke-width=".16" stroke-miterlimit="10"></path> <path opacity=".3" d="M150.97 46.46v1.18c5.27 76.33-86.84 113.78-101.56 112.14a79.353 79.353 0 0 0 93.096-18.736 79.351 79.351 0 0 0 8.464-94.584Z" fill="#035746"></path> <path d="M50.82 169.63a9.577 9.577 0 0 1 4.84 2.45c.81 1 0 1.49-1.92 1.13a9.66 9.66 0 0 1-4.85-2.45c-.8-.98.06-1.49 1.93-1.13ZM106.75 11.76c2.29.89 4.58 1.29 6.66 2.43 1-2.52 3-7.22 3-7.38-.49-1.5-2.36-2.11-3.7-2.69-1-.33-3-1-3.63-.09-.07.16-2.1 5.18-3.06 7.54.248.043.492.106.73.19Z" fill="#C24F02" stroke="#0D200F" stroke-width=".16" stroke-miterlimit="10"></path> <path d="M83.26 167.44c43.818 0 79.34-35.522 79.34-79.34 0-43.818-35.522-79.34-79.34-79.34-43.818 0-79.34 35.522-79.34 79.34 0 43.818 35.522 79.34 79.34 79.34Z" stroke="#0D200F" stroke-width=".16" stroke-miterlimit="10"></path> <path opacity=".3" d="m131.69 25.73-15.17-7-8.15 1.11A13.13 13.13 0 0 1 99 17.53a2.4 2.4 0 0 1 .76-4.27l6.21-1.68 3.06-7.54 7.33 2.78-2.86 8.31c4.5-.08 17 9.4 18.19 10.6Z" fill="#035746"></path> <path d="M63.5 176.82a16.469 16.469 0 0 1-4.8-2.88c-1.26-1.16-1.47-1.93-2.5-3.39-2.69-3.83-3-5.57-7.56-6.44-3.76-.71-5.75.64-6 1.83-.35 3.91 3.62 6.86 3.62 6.86a6.508 6.508 0 0 0 4 2c3.91.85 8.59 2.21 12.5 3.05-.86-.31 4 1.03.74-1.03Z" fill="#035746" stroke="#0D6B59" stroke-width=".16" stroke-miterlimit="10"></path> <path d="M42.5 166.74c.17-.7 4.13-1.3 5.67-1.66.3-.2.94-.65 1.25-.83.31-.18-2.92-.21-2.66-.35-2.62-.06-4 1-4.26 2a5.53 5.53 0 0 0 0 .91v-.07Z" fill="#0D6B59"></path> <path d="M58.12 174.94a16.647 16.647 0 0 1-2.5-3.39c-2.69-3.83-3-5.58-7.56-6.44-10.48-2-2.71 7-2.71 7a10.847 10.847 0 0 0 5.1 2.7c3.91.85 8.59 2.21 12.5 3.06a16.836 16.836 0 0 1-4.83-2.93Z" fill="#0D6B59"></path> <path d="M44.76 165.64c2.24-.23 2.42-.46 3.63-.46-6.23-1.31-6.17 1.45-5.41 3.32-.33-1.36-.56-2.56 1.78-2.86Z" fill="#67C0AF"></path> <path d="M63.5 176.86a16.64 16.64 0 0 1-4.82-2.9 16.246 16.246 0 0 1-2.5-3.39c-2.69-3.84-3-5.58-7.56-6.45-3.76-.7-5.75.64-6 1.83v.53a3.74 3.74 0 0 0 .34 1.93 9.008 9.008 0 0 0 1.65 2.81c.43.58.75.95.75.95.46.444.963.842 1.5 1.19a6.426 6.426 0 0 0 3.41 1.47l.19.05c3.91.84 8.59 2.2 12.49 3.05l-.21-.09c.42.1 3.56.78.76-.98Z" stroke="#0D6B59" stroke-width=".16" stroke-miterlimit="10"></path> <path d="M125.05 5.19a16.68 16.68 0 0 0-5.63.21 16.263 16.263 0 0 0-3.83 1.76c-4.21 2.05-5.29 3.44-9.73 2-3.64-1.2-4.73-3.34-4.39-4.51 1.58-3.6 6.49-4.25 6.49-4.25a6.51 6.51 0 0 1 4.52.18c3.82 1.15 8.58 2.22 12.41 3.37-.92-.17 3.98.99.16 1.24Z" fill="#035746"></path> <path d="M101.61 4.2c-.07.14-.15.28-.22.43-.35 1.17.75 3.31 4.38 4.51.9.319 1.838.517 2.79.59a7.703 7.703 0 0 0 3.94-2.12c-3-.59-8.74-1.4-10.89-3.41Z" fill="#0D6B59" stroke="#0D6B59" stroke-width=".16" stroke-miterlimit="10"></path> <path d="M119.43 4.19a16.23 16.23 0 0 0-3.83 1.75c-4.21 2.06-5.29 3.45-9.74 2-10.12-3.34 1-7.42 1-7.42a11 11 0 0 1 5.77.1c3.83 1.15 8.59 2.23 12.41 3.38a16.37 16.37 0 0 0-5.61.19Z" fill="#419282"></path> <path d="M112.09 7.61a9.06 9.06 0 0 1-6-.27c-5.05-2.11-4-3.22-4.21-3.38-.67 1.26 0 2.71 4 4.05 3.16 1 4.62.63 6.72-.42a2.331 2.331 0 0 0-.51.02Z" fill="#67C0AF"></path> <path d="M124.68 3.94h.24c-3.83-1.15-8.59-2.22-12.42-3.37l-.18-.05a6.46 6.46 0 0 0-3.7-.36 9.343 9.343 0 0 0-1.88.31s-.47.17-1.12.47a9.01 9.01 0 0 0-2.8 1.66c-.54.388-.968.913-1.24 1.52-.08.16-.17.31-.24.48-.35 1.16.74 3.31 4.38 4.5 4.44 1.47 5.53.08 9.73-2a12.67 12.67 0 0 1 9.46-2c3.27-.1.17-.98-.23-1.16Z" stroke="#0D6B59" stroke-width=".16" stroke-miterlimit="10"></path> <path d="M147.66 166.885c4.952 1.893 10.473 4.018 14.809 7.098 1.414 1.005 3.347 2.401 4.118 3.943M156.492 167.832c4.182 1.254 8.159 3.645 11.497 6.449.733.616 1.516 1.235 2.19 1.91.375.375.342.863.824 1.104M4.13 116.414c2.992 8.751 7.9 16.348 13.565 23.588 1.154 1.475 2.369 2.909 3.47 4.416.619.847 1.788 1.227 2.524 1.963M147.028 34.397c2.95 3.008 5.934 6.347 7.887 10.094.808 1.551 2.208 3.203 2.208 5.047M144.505 26.826c4.822 6.063 10.547 11.669 13.564 18.927 1.556 3.743 3.75 7.743 4.732 11.672M-3.756 108.212c2.293 7.244 5.265 14.35 8.657 21.135.778 1.556 1.979 2.976 2.7 4.416" stroke="#0D200F" stroke-width=".16" stroke-linecap="round"></path> <path opacity=".3" d="M133.27 70.57c-2.2-1.19-4-.21-4.26 2.15l-3.23-1c-.23-.11-.42 0-.4.3a.885.885 0 0 0 .34.65l.1.06 3.39 2.36a8.932 8.932 0 0 0 4 5.45c2.36 1.27 4.29.09 4.32-2.65a8.936 8.936 0 0 0-4.26-7.32Z" fill="#0D200F"></path> <path d="M125.61 72.35a.46.46 0 0 1-.37-.43.443.443 0 0 1 .114-.33.452.452 0 0 1 .316-.15l8.39-1.73c.25 0 .29 1.43.31 1.68.02.25-.16 1.89-.41 1.9l-8.28-.94h-.07Z" fill="#0D200F"></path> <path d="M133.71 75.81a4.61 4.61 0 1 0 0-9.22 4.61 4.61 0 0 0 0 9.22Z" fill="#CEB5FE" stroke="#0D200F" stroke-width=".16" stroke-miterlimit="10"></path> <path d="M135.24 70.48a1.24 1.24 0 1 0 0-2.48 1.24 1.24 0 0 0 0 2.48Z" fill="#FAF6E3"></path> <path opacity=".3" d="M117.53 22.09c-2.44.59-3.13 2.52-1.73 4.45l-3.05 1.44c-.25.07-.29.29-.1.49a.853.853 0 0 0 .69.25h.11l4.05-.57a8.93 8.93 0 0 0 6.56 1.38c2.6-.63 3.24-2.8 1.43-4.86a8.927 8.927 0 0 0-7.96-2.58Z" fill="#0D200F"></path> <path d="M113.06 28.54a.446.446 0 0 1-.333.094.455.455 0 0 1-.396-.502.453.453 0 0 1 .169-.302l5.1-6.93c.18-.18 1.18.87 1.36 1 .18.13 1.14 1.5 1 1.68l-6.77 4.84-.13.12Z" fill="#0D200F"></path> <path d="M118.28 26.88a4.61 4.61 0 1 0 0-9.22 4.61 4.61 0 0 0 0 9.22Z" fill="#EB609A" stroke="#0D200F" stroke-width=".16" stroke-miterlimit="10"></path> <path d="M118.1 21.03a1.24 1.24 0 1 0 0-2.48 1.24 1.24 0 0 0 0 2.48Z" fill="#FAF6E3"></path> <path opacity=".3" d="M36.2 41.79c-2.43.59-3.12 2.53-1.73 4.46l-3 1.43c-.25.08-.29.3-.09.5a.9.9 0 0 0 .68.25h.12l4-.57a9 9 0 0 0 6.59 1.39c2.61-.63 3.25-2.81 1.44-4.86a8.94 8.94 0 0 0-8.01-2.6Z" fill="#0D200F"></path> <path d="M31.7 48.24a.46.46 0 0 1-.57-.72l5.11-6.92c.17-.18 1.17.86 1.35 1 .18.14 1.15 1.51 1 1.69l-6.78 4.84a.27.27 0 0 1-.11.11Z" fill="#0D200F"></path> <path d="M36.95 46.58a4.61 4.61 0 1 0 0-9.22 4.61 4.61 0 0 0 0 9.22Z" fill="#ED6912" stroke="#0D200F" stroke-width=".16" stroke-miterlimit="10"></path> <path d="M36.77 40.73a1.24 1.24 0 1 0 0-2.48 1.24 1.24 0 0 0 0 2.48Z" fill="#FAF6E3"></path> <path opacity=".3" d="M62.23 95.32c-2-1-4.67-.2-6.24 1.78l-3.32-.84a.55.55 0 0 0-.65.26.42.42 0 0 0 .07.54c.03.005.06.005.09 0l2.81 1.93a3.831 3.831 0 0 0 1.82 4.58c2.13 1.08 5.06.09 6.56-2.2s.99-4.97-1.14-6.05Z" fill="#0D200F"></path> <path d="M52.82 96.96a.46.46 0 0 1-.61.526.46.46 0 0 1-.26-.236l-4.72-7.16c-.11-.23 1.22-.81 1.45-.91.23-.1 1.8-.55 1.91-.32l2.19 8a.417.417 0 0 1 .04.1Z" fill="#0D200F"></path> <path d="M48.76 94.47a4.61 4.61 0 1 0 0-9.22 4.61 4.61 0 0 0 0 9.22Z" fill="#E02273" stroke="#0D200F" stroke-width=".16" stroke-miterlimit="10"></path> <path d="M46.38 90.41a1.24 1.24 0 1 0 0-2.48 1.24 1.24 0 0 0 0 2.48Z" fill="#FAF6E3"></path> <path opacity=".3" d="M58.44 40.98a6.08 6.08 0 0 0-6 3.38l-3.86.32a.59.59 0 0 0-.52.41.35.35 0 0 0 .27.43h.12l3.73.75a3.76 3.76 0 0 0 3.66 3.25A6 6 0 0 0 62 45.69c.69-2.34-.89-4.46-3.56-4.71Z" fill="#0D200F"></path> <path d="M48.92 45.4a.45.45 0 0 1-.42.38.46.46 0 0 1-.49-.42l-1.87-8.4c0-.25 1.42-.32 1.68-.34.26-.02 1.88.13 1.9.38l-.79 8.29a.407.407 0 0 1-.01.11Z" fill="#0D200F"></path> <path d="M47.65 41.93a4.61 4.61 0 1 0 0-9.22 4.61 4.61 0 0 0 0 9.22Z" fill="#6F46BF" stroke="#0D200F" stroke-width=".16" stroke-miterlimit="10"></path> <path d="M45.66 37.07a1.24 1.24 0 1 0 0-2.48 1.24 1.24 0 0 0 0 2.48Z" fill="#FAF6E3"></path> <path opacity=".3" d="M66.23 14.59c-2.84 0-5.56 1.22-6.37 2.76l-4.31.49c-.31 0-.59.15-.63.32-.04.17.12.26.36.28h.13l4.28.27c.38 1.18 2.1 2 4.49 2 3 0 6-1.39 6.54-3.09s-1.45-3.04-4.49-3.03Z" fill="#0D200F"></path> <path d="M55.75 17.51a.46.46 0 0 1-.84.34l-5.19-6.86c-.13-.22 1.16-.88 1.38-1 .22-.12 1.77-.67 1.89-.45l2.72 7.87a.42.42 0 0 1 .04.1Z" fill="#0D200F"></path> <path d="M51.24 15.3a4.61 4.61 0 1 0 0-9.22 4.61 4.61 0 0 0 0 9.22Z" fill="#E62B17" stroke="#0D200F" stroke-width=".16" stroke-miterlimit="10"></path> <path d="M48.81 11.4a1.24 1.24 0 1 0 0-2.48 1.24 1.24 0 0 0 0 2.48Z" fill="#FAF6E3"></path> <path d="M39.67 119.71a.459.459 0 0 1-.26.51.463.463 0 0 1-.61-.22l-4.72-7.16c-.11-.23 1.22-.81 1.45-.91.23-.1 1.8-.55 1.91-.32l2.19 8a.431.431 0 0 1 .04.1Z" fill="#0D200F"></path> <path opacity=".3" d="M49.08 118.07c-2-1-4.67-.2-6.24 1.78l-3.32-.84a.552.552 0 0 0-.65.26.42.42 0 0 0 .07.54c.03.005.06.005.09 0l2.81 1.93a3.83 3.83 0 0 0 1.82 4.58c2.13 1.08 5.06.09 6.56-2.2s.99-4.97-1.14-6.05Z" fill="#0D200F"></path> <path d="M35.61 117.22a4.61 4.61 0 1 0 0-9.22 4.61 4.61 0 0 0 0 9.22Z" fill="#DDB545" stroke="#0D200F" stroke-width=".16" stroke-miterlimit="10"></path> <path d="M33.23 113.16a1.24 1.24 0 1 0 0-2.48 1.24 1.24 0 0 0 0 2.48Z" fill="#FAF6E3"></path> </g> <defs> <clipPath id="globe-a"> <path fill="#fff" d="M0 0h172.83v221.44H0z"></path> </clipPath> </defs> </svg>