<svg viewBox="0 0 200 200" width="1.25em" height="1.25em" xmlns="http://www.w3.org/2000/svg" class="dJtn-menu-item-icon" role="img" aria-hidden="true"><path d="M157.952 96.997c6.587-23.706 7.897-44.46 4.27-58.735c21.469 15.807 32.083 43.166 26.147 69.806l-30.417-11.071zm-33.65-71.949C98.32 24.07 73.444 38.069 61.141 61.761l29.201 10.628c10.043-22.067 22.168-38.629 33.96-47.341zM167.5 152.5h-64.222l24.267-66.571l22.224 8.089c7.814-28.622 6.856-50.857 1.101-61.029c-3.617-3.015-3.281-3.53-11.699-5.766c-11.068 2.509-27.356 19.292-40.644 48.145l17.85 6.497l-25.75 70.635H32.5C20.074 152.5 10 162.574 10 175h180c0-12.426-10.074-22.5-22.5-22.5z"></path></svg>