<svg viewBox="0 0 200 200" width="1.25em" height="1.25em" xmlns="http://www.w3.org/2000/svg" class="dJtn-menu-item-icon" role="img" aria-hidden="true"><path d="M176.54 34.58c-8.61-8.83-20.13-13.99-32.29-14.53c-21.53-.97-36.06 12.06-43.92 22.17c-7.86-10.12-22.39-23.14-43.92-22.17c-12.27.54-23.68 5.7-32.29 14.53c-8.72 8.93-13.45 20.56-13.45 32.83c0 19.27 10.98 41.01 32.51 64.58c17.11 18.73 32.29 33.15 46.28 44.24c3.23 2.48 7.1 3.77 10.87 3.77s7.64-1.29 10.87-3.77c14.1-11.09 29.17-25.51 46.28-44.24c21.53-23.57 32.51-45.32 32.51-64.58c0-12.27-4.74-23.9-13.46-32.83z"></path></svg>